<?xml version="1.0" encoding="utf-8"?>
<svg width="257.17383px" height="169.89746px" viewBox="0 0 257.17383 169.89746" version="1.1" xmlns:xlink="http://www.w3.org/1999/xlink" xmlns="http://www.w3.org/2000/svg">
  <g id="Group">
    <g id="Group">
      <path d="M210.21 64.9875L130.2 103.888C129.47 104.248 128.61 104.248 127.88 103.888L46.98 64.9675C44.98 64.0075 44.96 61.1775 46.94 60.1775L127.38 19.9775C128.13 19.5975 129.01 19.5975 129.76 19.9775L210.23 60.2175C212.21 61.2075 212.19 64.0275 210.2 64.9975L210.21 64.9875Z" id="Path" fill="#DBE7FF" fill-rule="evenodd" stroke="none" />
      <path d="M203.87 71.1975L130.25 106.997C129.47 107.378 128.56 107.378 127.78 106.997L53.33 71.1875C51.2 70.1675 51.18 67.1375 53.29 66.0875L127.3 29.0775C128.1 28.6775 129.04 28.6775 129.84 29.0775L203.89 66.1075C206 67.1575 205.98 70.1775 203.86 71.2075L203.87 71.1975Z" id="Path" fill="#DEDAFF" fill-rule="evenodd" stroke="none" />
      <path d="M196.81 71.9175L128.95 106.018L60.36 71.9175L126.1 37.9375C127.66 37.1275 129.49 37.1275 131.05 37.9375L196.8 71.9175L196.81 71.9175Z" id="Path" fill="#D1C3FF" fill-rule="evenodd" stroke="none" />
      <path d="M127.16 0.3375L1.79 62.5875C-0.58 63.7675 -0.59 67.1475 1.79 68.3275L127.16 131.018C128.06 131.467 129.13 131.467 130.03 131.018L255.4 68.3275C257.77 67.1475 257.76 63.7675 255.4 62.5875L130.02 0.3375C129.12 -0.1125 128.07 -0.1125 127.17 0.3375L127.16 0.3375ZM47.95 59.7075L127.16 20.0975C128.06 19.6475 129.13 19.6475 130.03 20.0975L209.28 59.7175C211.66 60.9075 211.64 64.3075 209.25 65.4675L130.47 103.777C129.59 104.208 128.56 104.208 127.68 103.777L48.01 65.4575C45.61 64.2975 45.58 60.8875 47.97 59.6975L47.95 59.7075Z" id="Shape" fill="#9333FF" fill-rule="evenodd" stroke="none" />
      <path d="M230.69 92.0875C230.69 92.0875 230.69 118.927 230.69 118.927C230.69 118.927 128.49 169.897 128.49 169.897C128.49 169.897 128.48 169.897 128.48 169.897C128.48 169.897 128.49 143.058 128.49 143.058C128.49 143.058 230.69 92.0875 230.69 92.0875C230.69 92.0875 230.69 92.0875 230.69 92.0875Z" id="Path" fill="#DEDAFF" fill-rule="evenodd" stroke="none" />
      <path d="M128.48 143.058C94.77 126.257 61.05 109.458 27.33 92.6475C27.29 101.408 27.24 110.168 27.2 118.927L128.48 169.897L128.48 143.048L128.48 143.058Z" id="Path" fill="#9333FF" fill-rule="evenodd" stroke="none" />
      <path d="M0.15 114.837C0.1 98.3775 0.05 81.9075 0 65.4475L9.69 70.2875C9.72 86.8375 9.76 103.387 9.79 119.938C9.79 120.857 8.84 121.457 8.01 121.067C6.16 120.197 4.3 119.317 2.45 118.447C1.05 117.787 0.15 116.377 0.14 114.827L0.15 114.837Z" id="Path" fill="#9333FF" fill-rule="evenodd" stroke="none" />
      <path d="M0 112.927L0 153.138C0 153.438 0.15 153.717 0.41 153.888L16.2 164.078C16.79 164.458 17.57 164.038 17.57 163.328L17.57 121.618C17.57 121.288 17.39 120.998 17.11 120.838L1.32 112.148C0.730003 111.818 2.5034e-06 112.248 2.5034e-06 112.928L0 112.927Z" id="Path" fill="#DEDAFF" fill-rule="evenodd" stroke="none" />
      <path d="M154.2 85.6575L134.28 95.3475C131.32 96.7875 127.86 96.7975 124.9 95.3675L104.7 85.6575C102.83 84.7575 102.81 82.1075 104.67 81.1775L125.51 70.7575C127.99 69.5175 130.9 69.5175 133.37 70.7575L154.23 81.1875C156.08 82.1175 156.07 84.7575 154.21 85.6675L154.2 85.6575Z" id="Path" fill="#0066C6" fill-rule="evenodd" stroke="none" />
      <path d="M153.98 49.8475L132.44 60.3175C130.58 61.2175 128.42 61.2275 126.56 60.3275L104.75 49.8375C102.83 48.9075 102.81 46.1775 104.71 45.2275L126.67 34.2475C128.36 33.4075 130.34 33.4075 132.02 34.2475L154 45.2375C155.91 46.1875 155.89 48.9175 153.97 49.8475L153.98 49.8475Z" id="Path" fill="#339366" fill-rule="evenodd" stroke="none" />
      <path d="M121.79 67.4675L100.7 77.7175C98.42 78.8275 95.76 78.8275 93.48 77.7375L72.12 67.4575C70.29 66.5775 70.27 63.9675 72.09 63.0575L93.71 52.2475C95.75 51.2275 98.14 51.2275 100.18 52.2475L121.82 63.0675C123.64 63.9775 123.62 66.5775 121.8 67.4575L121.79 67.4675Z" id="Path" fill="#C63333" fill-rule="evenodd" stroke="none" />
      <path d="M184.02 69.3075L164.47 78.8175C162.3 79.8775 159.76 79.8775 157.58 78.8275L137.77 69.2975C135.24 68.0775 135.21 64.4775 137.72 63.2175L157.86 53.1475C159.75 52.1975 161.99 52.1975 163.88 53.1475L184.05 63.2375C186.56 64.4875 186.54 68.0775 184.02 69.3075L184.02 69.3075Z" id="Path" fill="#C66633" fill-rule="evenodd" stroke="none" />
      <path d="M154.2 83.6475L134.28 93.3375C131.32 94.7775 127.86 94.7875 124.9 93.3575L104.7 83.6475C102.83 82.7475 102.81 80.0975 104.67 79.1675L125.51 68.7475C127.99 67.5075 130.9 67.5075 133.37 68.7475L154.23 79.1775C156.08 80.1075 156.07 82.7475 154.21 83.6575L154.2 83.6475Z" id="Path" fill="#0093FF" fill-rule="evenodd" stroke="none" />
      <path d="M153.98 47.8375L132.44 58.3075C130.58 59.2075 128.42 59.2175 126.56 58.3175L104.75 47.8275C102.83 46.8975 102.81 44.1675 104.71 43.2175L126.67 32.2375C128.36 31.3975 130.34 31.3975 132.02 32.2375L154 43.2275C155.91 44.1775 155.89 46.9075 153.97 47.8375L153.98 47.8375Z" id="Path" fill="#33C693" fill-rule="evenodd" stroke="none" />
      <path d="M121.79 65.4575L100.7 75.7075C98.42 76.8175 95.76 76.8175 93.48 75.7275L72.12 65.4475C70.29 64.5675 70.27 61.9575 72.09 61.0475L93.71 50.2375C95.75 49.2175 98.14 49.2175 100.18 50.2375L121.82 61.0575C123.64 61.9675 123.62 64.5675 121.8 65.4475L121.79 65.4575Z" id="Path" fill="#FF3366" fill-rule="evenodd" stroke="none" />
      <path d="M184.02 67.2975L164.47 76.8075C162.3 77.8675 159.76 77.8675 157.58 76.8175L137.77 67.2875C135.24 66.0675 135.21 62.4675 137.72 61.2075L157.86 51.1375C159.75 50.1875 161.99 50.1875 163.88 51.1375L184.05 61.2275C186.56 62.4775 186.54 66.0675 184.02 67.2975L184.02 67.2975Z" id="Path" fill="#FF9333" fill-rule="evenodd" stroke="none" />
    </g>
  </g>
</svg>